<svg width="706" height="762" viewBox="0 0 706 762" fill="none" xmlns="http://www.w3.org/2000/svg">
<path d="M642 161.905L639.672 223.292L635.176 341.433C631.532 437.3 592.709 527.722 527.427 597.217C509.927 615.864 490.5 632.997 469.355 648.34C454.503 659.094 438.785 668.961 422.28 677.849C421.83 678.093 421.38 678.338 420.931 678.583C414.958 681.765 408.905 684.824 402.74 687.761L352.197 711.839L301.654 687.761C299.599 686.782 297.56 685.788 295.537 684.794C159.932 617.654 74.2115 484.661 69.6034 339.123L64 161.905L352.197 51L642 161.905Z" fill="#0F3CA1"/>
<path d="M519.79 291.935C519.847 291.84 519.88 291.76 519.88 291.649C519.88 291.456 520.183 290.8 520.452 290.195C522.472 285.747 528.475 272.386 519.349 260.758C519.346 260.753 519.343 260.748 519.339 260.743C517.598 258.394 515.587 256.593 513.419 255.225C508.947 252.217 503.566 250.702 497.738 250.977C487.772 251.383 478.029 256.637 471.581 265.148L469.76 263.636C469.575 263.504 469.298 263.447 469.032 263.48C468.764 263.504 468.513 263.636 468.368 263.813L466.056 267.127C465.896 267.411 465.88 267.792 466.056 268.044L466.358 268.624L466.37 268.645C465.567 270.066 462.923 274.759 461.16 278.219C453.046 266.26 429.495 270.984 415.213 273.86C413.594 274.177 412.106 274.495 410.77 274.72C410.742 274.728 410.725 274.747 410.699 274.756C395.02 277.159 382.37 278.011 369.89 277.471C369.214 277.174 368.569 276.904 367.948 276.655C367.948 276.654 367.948 276.654 367.948 276.653C367.714 270.873 360.355 268.044 357.84 267.079C354.472 265.854 350.3 265.154 348.726 264.963L348.254 263.21C348.237 263.109 348.204 263.015 348.157 262.931V262.928H348.155C348.014 262.677 347.752 262.513 347.454 262.513C347.049 262.488 340.009 262.059 333.018 262.296L325.714 252.54L326.027 247.628C326.027 247.399 325.946 247.191 325.744 246.998C325.444 246.608 291.084 207.477 275.817 188.45C269.726 180.868 261.777 173.104 254.396 166.489C253.597 165.757 252.826 165.064 252.122 164.465C252.075 164.424 252.026 164.383 251.978 164.343C241.847 155.448 233.36 149.102 233.21 148.995C233.043 148.854 232.81 148.768 232.608 148.791C232.219 148.817 225.066 149.434 220.254 156.541C220.035 156.823 219.849 157.106 219.71 157.389C219.149 158.314 218.625 159.333 218.159 160.468C217.877 160.873 217.725 161.294 217.725 161.659C217.725 161.774 217.79 161.978 217.908 162.218C219.736 165.719 235.291 182.167 274.744 222.981C291.925 240.833 308.167 257.701 309.138 259.305C309.305 259.575 309.623 259.753 309.957 259.753C310.125 259.753 310.288 259.71 310.443 259.627C310.512 259.575 310.592 259.514 310.592 259.422H310.663C310.828 259.422 311.014 259.362 311.18 259.262L313.007 257.968L319.625 264.151C317.248 264.911 313.344 266.346 311.297 268.126C311.289 268.133 311.284 268.141 311.275 268.148C309.976 269.164 309.152 270.241 309.051 271.311C308.885 272.441 309.256 273.406 309.99 274.113C311.013 275.1 312.734 275.636 315.229 275.701C314.648 276.957 314.374 278.733 315.452 280.654C316.265 282.002 317.974 282.467 319.841 282.479C319.526 284.036 319.343 286.566 321.168 287.514C321.443 287.636 321.788 287.707 322.165 287.755C322.162 287.763 322.161 287.768 322.158 287.776C321.622 289.598 321.421 292.105 323.501 293.083C324.374 293.433 325.509 293.58 326.767 293.58H326.9C326.907 293.58 326.916 293.58 326.923 293.58C326.844 294.261 326.701 296.633 328.512 298.172C329.068 298.671 329.838 299.035 330.765 299.268C330.777 299.289 330.777 299.311 330.791 299.33C330.838 299.467 331.692 300.922 333.621 302.429C333.633 302.535 333.658 302.642 333.707 302.747C333.953 303.182 334.231 303.595 334.533 303.989C334.529 304.08 334.523 304.17 334.545 304.264C335.398 307.593 337.897 310.387 341.566 312.073C344.083 313.22 346.982 313.83 349.827 313.83C352.426 313.83 355.01 313.335 357.221 312.359C357.922 312.048 358.513 311.674 359.027 311.264C359.067 311.27 359.105 311.284 359.146 311.284C359.198 311.284 359.266 311.252 359.335 311.252C361.829 310.76 366.104 307.784 370.212 304.782C370.889 304.296 371.586 303.802 371.984 303.542C377.134 308.035 383.805 313.631 391.235 319.358C391.488 319.591 391.626 319.722 391.626 319.722C391.626 319.722 391.221 320.235 390.527 321.134C390.491 321.095 390.469 321.048 390.424 321.015C390.088 320.687 389.468 320.687 389.099 321.054C385.153 325.309 381.467 331.732 377.503 338.556C371.025 349.849 363.627 362.598 354.288 365.506C354.1 365.579 353.956 365.71 353.847 365.86C353.226 366.097 352.862 366.212 352.862 366.212C352.394 366.288 352.025 366.741 352.129 367.223C352.144 367.317 352.227 367.731 352.457 368.397C351.08 369.314 341.283 376.34 330.656 397.002C319.511 418.766 311.346 447.997 311.282 448.3C311.275 448.329 311.283 448.356 311.279 448.385C311.256 448.401 311.235 448.415 311.212 448.431C310.325 449.022 309.487 449.707 308.684 450.514C308.558 450.618 308.494 450.682 308.435 450.779C308.422 450.796 308.411 450.811 308.4 450.829C308.399 450.831 308.398 450.832 308.397 450.834C308.061 451.171 307.829 451.447 307.558 451.766C303.269 457.077 302.281 464.692 304.678 473.155C305.836 477.062 306.857 480.854 307.878 484.471C308.132 485.559 308.433 486.566 308.719 487.539C309.238 489.407 309.722 491.138 310.181 492.76C311.526 498.132 312.767 502.443 313.967 505.136C314.758 507.312 315.405 508.64 315.959 509.142C317.266 510.388 318.438 510.628 319.209 510.628C321.99 517.096 344.465 570.242 348.588 580.453C350.132 584.436 351.122 588.227 351.875 591.305C353.283 596.811 354.271 600.86 358.044 600.86H358.412C357.286 603.026 356.583 605.693 357.138 608.181C357.154 608.314 357.205 608.494 357.286 608.694V608.728C357.657 610.031 358.412 611.338 359.635 612.439C359.986 612.717 360.405 612.981 360.874 613.156C362.349 613.78 364.513 614.052 366.924 614.052C368.972 614.052 371.216 613.844 373.41 613.621C378.976 612.954 384.153 611.713 385.178 611.257C386.04 610.904 386.584 610.586 387.128 610.255C388.178 609.615 389.249 608.988 392.905 608.093C395.316 607.549 396.18 606.065 396.433 604.917C397.144 601.817 394.543 597.627 393.153 596.616C392.502 596.094 392.813 593.372 393.509 591.239C393.65 590.742 393.375 590.258 392.905 590.126C392.62 590.035 392.348 590.071 392.135 590.189C392.145 590.081 392.154 589.984 392.163 589.899C394.578 589.721 396.586 588.899 397.713 587.647C398.503 586.745 398.788 585.763 398.602 584.69C398.558 584.409 398.462 584.069 398.34 583.697C398.258 583.377 398.136 583.041 397.967 582.686C397.952 582.656 397.935 582.622 397.921 582.592C396.984 580.347 395.174 577.001 392.776 572.515C389.35 566.159 384.618 557.37 379.991 547.214C376.486 539.519 373.984 530.903 371.57 522.573C368.586 512.322 365.719 502.663 361.295 494.45C361.429 494.275 361.563 494.099 361.665 493.839C362.868 491.535 362.132 486.641 359.601 479.766C359.301 478.964 358.949 477.997 358.511 476.983C358.51 476.981 358.509 476.979 358.508 476.977C362.132 465.949 370.334 453.151 372.015 450.565C372.498 458.42 373.539 466.897 375.462 475.456C376.086 478.45 376.838 481.452 377.752 484.338C377.752 484.34 377.753 484.342 377.754 484.344C383.991 506.377 390.666 520.406 394.175 526.948C393.04 528.587 388.98 534.631 388.304 538.822C387.935 541.078 389.283 543.822 390.834 546.992C392.622 550.646 394.631 554.823 393.994 558.563C393.899 559.049 394.245 559.501 394.749 559.548H394.802L393.861 562.732C393.237 564.059 392.722 565.227 392.737 566.533C392.737 566.533 392.791 567.19 393.003 568.104C392.999 568.119 392.993 568.135 392.99 568.15C392.886 568.993 393.179 569.863 393.946 570.735C394.8 572.386 396.236 573.9 398.659 573.917C398.66 573.917 398.66 573.917 398.661 573.917C401.402 575.212 404.635 576.168 406.917 576.168C407.193 576.168 407.468 576.168 407.712 576.07C408.257 577.497 413.904 591.167 424.949 596.064C425.955 596.484 426.92 596.84 427.867 597.128C429.692 597.708 431.337 598.01 432.755 598.01C434.036 598.01 435.176 597.794 436.179 597.357C436.525 597.231 436.799 597.064 437.083 596.898C440.336 594.957 441.978 590.413 442.15 583.073C442.381 571.071 434.143 561.389 433.13 560.257C439.524 557.511 446.236 551.627 447.32 542.47C447.433 541.526 447.492 540.628 447.528 539.755C448.636 532.693 446.416 528.433 445.149 526.66C444.986 526.326 444.869 526.119 444.845 526.079C444.722 525.932 444.582 525.793 444.399 525.742C444.37 525.712 444.351 525.693 444.351 525.693C444.345 525.69 444.338 525.69 444.332 525.687C444.117 525.24 443.849 524.901 443.571 524.693C439.966 521.497 435.241 522.741 432.963 523.379H432.948C432.816 521.061 432.472 515.079 432.123 507.989C432.26 501.055 432.112 492.488 431.218 483.385C431.211 482.949 431.205 482.519 431.201 482.102C431.119 467.106 426.081 428.773 426.006 428.359L427.106 427.991C427.288 428.507 427.379 428.886 427.383 429.094C427.288 429.58 427.624 430.011 428.166 430.075C428.199 430.075 428.219 430.095 428.301 430.095C428.738 430.095 429.141 429.743 429.23 429.329C429.254 429.177 429.215 428.877 429.111 428.464C429.287 428.45 429.451 428.409 429.602 428.334C429.638 428.305 429.659 428.266 429.69 428.234C429.698 428.227 429.702 428.218 429.71 428.211C429.77 428.144 429.824 428.077 429.864 428C429.888 427.954 429.902 427.906 429.917 427.856C429.938 427.789 429.954 427.725 429.959 427.657C429.96 427.638 429.97 427.623 429.97 427.603C429.97 427.513 429.996 423.828 430.794 418.233C432.977 405.519 439.823 381.896 461.169 366.051C463.31 364.498 465.428 363.062 467.479 361.673C471.182 359.164 474.679 356.812 477.769 354.105C481.682 350.746 484.115 346.455 485.631 342.337C487.37 338.796 487.834 335.863 487.758 333.607C488.164 330.572 488.129 328.463 488.129 328.234C488.125 328.176 488.1 328.127 488.086 328.072C489.098 327.902 490.434 327.57 491.892 326.941C492.041 326.877 492.203 326.824 492.346 326.755C496.566 324.873 499.522 320.851 500.226 319.844C500.833 319.888 501.307 319.904 501.603 319.904C501.822 319.904 501.929 319.874 501.95 319.874C502.402 319.874 502.749 319.552 502.81 319.153L503.272 316.518L510.764 311.167C510.782 311.155 510.79 311.136 510.807 311.122C510.815 311.114 510.824 311.112 510.833 311.103C510.898 311.103 510.898 311.079 510.898 311.049L513.647 308.598C513.831 308.424 513.916 308.167 513.916 307.932L513.865 305.732L522.514 295.353C522.868 294.985 522.78 294.443 522.395 294.137L519.79 291.935ZM440.831 525.335C440.876 525.237 440.891 525.137 440.897 525.038C441.14 525.149 441.376 525.284 441.608 525.443L440.816 525.371C440.82 525.362 440.829 525.34 440.831 525.335ZM324.136 287.776C324.136 287.766 324.143 287.755 324.144 287.745C324.218 287.737 324.295 287.726 324.369 287.717C324.289 287.757 324.202 287.804 324.108 287.856C324.117 287.831 324.127 287.799 324.136 287.776ZM358.044 599.872C358.046 599.872 358.049 599.872 358.051 599.873L358.044 599.927V599.872ZM371.514 448.724L371.877 448.037C371.889 448.287 371.9 448.536 371.913 448.787C371.782 448.735 371.649 448.714 371.514 448.724ZM390.17 539.077C390.237 538.661 390.354 538.215 390.492 537.758C390.321 538.888 390.246 540.001 390.331 541.034C390.149 540.313 390.069 539.649 390.17 539.077ZM431.141 559.104C430.945 558.958 430.833 558.888 430.833 558.888C430.833 558.888 431.982 558.679 433.682 558.005C432.833 558.429 431.982 558.794 431.141 559.104ZM439.228 524.506C439.18 524.569 439.127 524.628 439.096 524.703C439.091 524.713 439.013 524.897 438.869 525.193L434.519 524.797C435.843 524.485 437.544 524.194 439.228 524.506Z" fill="#FEFEFE"/>
<path d="M195.973 186.787C187.303 187.584 180.956 194.932 181.807 203.164C182.647 211.412 190.355 217.453 198.988 216.656C207.635 215.867 214.024 208.515 213.165 200.285C212.33 192.035 204.598 185.985 195.973 186.787Z" fill="#FEFEFE"/>
</svg>
