<svg width="397" height="475" viewBox="0 0 397 475" fill="none" xmlns="http://www.w3.org/2000/svg">
<path d="M396.546 79.7061L394.952 123.825L391.874 208.731C389.378 277.63 362.795 342.615 318.093 392.561C306.11 405.962 292.807 418.276 278.328 429.303C268.159 437.031 257.395 444.122 246.094 450.51C245.786 450.686 245.478 450.862 245.17 451.038C241.08 453.324 236.936 455.523 232.714 457.634L198.105 474.939L163.496 457.634C162.089 456.93 160.693 456.216 159.307 455.501C66.4526 407.249 7.75597 311.667 4.60057 207.071L0.763672 79.7061L198.105 0L396.546 79.7061Z" fill="#0F3CA1"/>
<path d="M312.865 173.158C312.904 173.089 312.927 173.032 312.927 172.952C312.927 172.814 313.134 172.342 313.318 171.907C314.701 168.71 318.812 159.108 312.563 150.751C312.561 150.748 312.559 150.744 312.556 150.74C311.364 149.052 309.987 147.757 308.503 146.774C305.44 144.613 301.756 143.524 297.765 143.721C290.941 144.013 284.269 147.789 279.854 153.906L278.607 152.82C278.481 152.724 278.291 152.684 278.109 152.707C277.925 152.724 277.753 152.82 277.654 152.946L276.071 155.328C275.962 155.532 275.95 155.806 276.071 155.987L276.278 156.404L276.286 156.419C275.736 157.441 273.926 160.813 272.719 163.3C267.162 154.705 251.036 158.101 241.257 160.167C240.148 160.395 239.129 160.624 238.214 160.785C238.195 160.791 238.184 160.804 238.166 160.811C227.43 162.538 218.767 163.151 210.222 162.762C209.759 162.549 209.317 162.355 208.892 162.176C208.892 162.176 208.892 162.175 208.892 162.175C208.732 158.021 203.693 155.987 201.97 155.294C199.664 154.413 196.808 153.91 195.73 153.773L195.407 152.513C195.395 152.44 195.372 152.373 195.34 152.313V152.311H195.339C195.242 152.13 195.063 152.013 194.859 152.013C194.582 151.994 189.761 151.686 184.974 151.856L179.972 144.845L180.187 141.315C180.187 141.15 180.131 141 179.993 140.862C179.788 140.581 156.26 112.458 145.806 98.7839C141.635 93.3344 136.192 87.7551 131.138 83.0006C130.591 82.4746 130.063 81.9768 129.581 81.5458C129.548 81.5168 129.515 81.4875 129.482 81.4584C122.545 75.0654 116.733 70.5051 116.631 70.4277C116.516 70.3264 116.357 70.2647 116.218 70.2812C115.953 70.2998 111.055 70.7437 107.759 75.8509C107.609 76.0538 107.482 76.2573 107.387 76.4606C107.002 77.1257 106.644 77.8577 106.325 78.6732C106.132 78.9645 106.027 79.2671 106.027 79.5297C106.027 79.612 106.072 79.7585 106.153 79.9311C107.405 82.4475 118.056 94.2686 145.071 123.601C156.835 136.431 167.957 148.554 168.622 149.707C168.736 149.901 168.954 150.028 169.183 150.028C169.298 150.028 169.41 149.998 169.516 149.938C169.563 149.901 169.617 149.857 169.617 149.791H169.666C169.779 149.791 169.907 149.748 170.021 149.676L171.272 148.746L175.803 153.19C174.176 153.736 171.502 154.767 170.101 156.046C170.095 156.051 170.091 156.057 170.086 156.062C169.196 156.792 168.632 157.566 168.563 158.335C168.449 159.148 168.703 159.841 169.205 160.349C169.906 161.058 171.084 161.444 172.793 161.49C172.395 162.393 172.207 163.669 172.946 165.05C173.503 166.019 174.673 166.353 175.951 166.362C175.735 167.481 175.61 169.299 176.86 169.981C177.048 170.068 177.284 170.119 177.543 170.153C177.541 170.159 177.539 170.163 177.537 170.169C177.171 171.478 177.033 173.28 178.457 173.983C179.055 174.234 179.832 174.34 180.694 174.34H180.784C180.79 174.34 180.795 174.34 180.801 174.34C180.746 174.829 180.648 176.534 181.888 177.64C182.269 177.999 182.796 178.26 183.431 178.428C183.439 178.443 183.439 178.458 183.449 178.472C183.481 178.57 184.066 179.616 185.387 180.699C185.395 180.775 185.412 180.852 185.446 180.928C185.614 181.241 185.805 181.537 186.011 181.821C186.008 181.886 186.005 181.951 186.02 182.019C186.604 184.411 188.315 186.419 190.827 187.631C192.55 188.455 194.535 188.894 196.484 188.894C198.263 188.894 200.033 188.537 201.547 187.836C202.027 187.613 202.431 187.344 202.783 187.049C202.811 187.053 202.837 187.064 202.865 187.064C202.901 187.064 202.947 187.04 202.994 187.04C204.702 186.687 207.63 184.548 210.442 182.39C210.906 182.041 211.383 181.686 211.656 181.499C215.182 184.729 219.75 188.75 224.838 192.866C225.011 193.033 225.106 193.128 225.106 193.128C225.106 193.128 224.828 193.497 224.353 194.142C224.328 194.114 224.313 194.081 224.283 194.057C224.052 193.821 223.628 193.821 223.375 194.085C220.673 197.143 218.149 201.759 215.435 206.664C210.999 214.78 205.933 223.943 199.538 226.033C199.41 226.085 199.311 226.179 199.236 226.287C198.811 226.457 198.562 226.539 198.562 226.539C198.242 226.594 197.989 226.92 198.06 227.266C198.07 227.334 198.127 227.631 198.285 228.11C197.342 228.769 190.633 233.818 183.356 248.668C175.725 264.31 170.134 285.318 170.091 285.535C170.086 285.556 170.091 285.576 170.088 285.597C170.073 285.608 170.058 285.618 170.043 285.63C169.435 286.055 168.861 286.547 168.311 287.127C168.225 287.202 168.181 287.248 168.141 287.317C168.132 287.329 168.124 287.34 168.117 287.353C168.116 287.354 168.115 287.355 168.115 287.356C167.885 287.599 167.726 287.797 167.54 288.027C164.604 291.843 163.927 297.316 165.568 303.399C166.361 306.207 167.06 308.931 167.76 311.531C167.933 312.313 168.139 313.037 168.335 313.736C168.691 315.079 169.022 316.323 169.336 317.488C170.258 321.349 171.107 324.447 171.929 326.383C172.47 327.947 172.913 328.901 173.293 329.262C174.188 330.158 174.99 330.33 175.518 330.33C177.422 334.978 192.812 373.174 195.635 380.513C196.692 383.375 197.37 386.1 197.886 388.312C198.85 392.269 199.527 395.179 202.11 395.179H202.362C201.591 396.736 201.11 398.652 201.49 400.441C201.501 400.536 201.535 400.665 201.591 400.809V400.833C201.845 401.77 202.362 402.709 203.199 403.501C203.44 403.7 203.727 403.89 204.048 404.016C205.058 404.465 206.54 404.66 208.191 404.66C209.593 404.66 211.13 404.51 212.632 404.35C216.444 403.871 219.988 402.979 220.69 402.651C221.281 402.397 221.653 402.169 222.026 401.931C222.744 401.471 223.478 401.02 225.981 400.377C227.632 399.986 228.224 398.92 228.397 398.095C228.884 395.866 227.103 392.856 226.151 392.128C225.705 391.754 225.918 389.797 226.395 388.264C226.491 387.907 226.303 387.559 225.981 387.465C225.786 387.399 225.6 387.425 225.454 387.509C225.461 387.432 225.467 387.362 225.473 387.301C227.127 387.173 228.502 386.583 229.274 385.683C229.814 385.034 230.01 384.329 229.882 383.558C229.852 383.356 229.787 383.111 229.703 382.844C229.646 382.614 229.563 382.372 229.447 382.117C229.437 382.096 229.426 382.072 229.416 382.05C228.774 380.436 227.535 378.031 225.893 374.807C223.547 370.24 220.307 363.923 217.138 356.624C214.739 351.094 213.025 344.901 211.372 338.915C209.329 331.547 207.366 324.606 204.337 318.703C204.428 318.578 204.52 318.451 204.59 318.264C205.413 316.608 204.91 313.09 203.176 308.15C202.971 307.573 202.73 306.879 202.43 306.15C202.429 306.148 202.429 306.147 202.428 306.145C204.91 298.219 210.526 289.022 211.677 287.163C212.007 292.808 212.72 298.901 214.037 305.052C214.465 307.204 214.98 309.362 215.605 311.436C215.606 311.437 215.606 311.438 215.606 311.44C219.877 327.275 224.448 337.357 226.85 342.059C226.074 343.237 223.294 347.581 222.831 350.593C222.578 352.214 223.501 354.187 224.563 356.465C225.787 359.09 227.163 362.092 226.727 364.78C226.662 365.13 226.899 365.455 227.244 365.488H227.28L226.636 367.776C226.209 368.73 225.856 369.57 225.866 370.508C225.866 370.508 225.903 370.981 226.048 371.638C226.045 371.648 226.041 371.66 226.039 371.67C225.968 372.276 226.169 372.902 226.694 373.528C227.278 374.715 228.262 375.803 229.921 375.815C229.922 375.815 229.922 375.815 229.923 375.815C231.8 376.746 234.013 377.433 235.576 377.433C235.765 377.433 235.953 377.433 236.12 377.363C236.494 378.388 240.36 388.213 247.923 391.732C248.612 392.034 249.273 392.29 249.921 392.497C251.171 392.914 252.297 393.131 253.268 393.131C254.145 393.131 254.926 392.975 255.613 392.662C255.85 392.57 256.037 392.451 256.232 392.331C258.459 390.936 259.583 387.671 259.701 382.395C259.859 373.77 254.219 366.811 253.525 365.998C257.903 364.024 262.499 359.796 263.241 353.215C263.319 352.536 263.359 351.891 263.384 351.263C264.143 346.188 262.623 343.126 261.755 341.852C261.643 341.612 261.563 341.464 261.547 341.434C261.463 341.329 261.366 341.229 261.242 341.192C261.222 341.171 261.208 341.157 261.208 341.157C261.204 341.155 261.2 341.155 261.196 341.153C261.048 340.831 260.865 340.588 260.674 340.438C258.206 338.141 254.97 339.035 253.411 339.494H253.4C253.31 337.828 253.075 333.529 252.836 328.433C252.929 323.45 252.828 317.293 252.216 310.751C252.211 310.438 252.207 310.128 252.204 309.829C252.148 299.051 248.698 271.502 248.647 271.204L249.4 270.94C249.525 271.31 249.587 271.583 249.589 271.732C249.525 272.082 249.755 272.391 250.126 272.437C250.149 272.437 250.162 272.452 250.218 272.452C250.518 272.452 250.793 272.199 250.855 271.901C250.871 271.792 250.845 271.576 250.773 271.279C250.894 271.27 251.006 271.24 251.109 271.186C251.134 271.166 251.148 271.137 251.17 271.114C251.175 271.109 251.178 271.103 251.183 271.098C251.224 271.05 251.262 271.001 251.289 270.946C251.305 270.913 251.315 270.878 251.325 270.842C251.34 270.795 251.35 270.749 251.353 270.7C251.354 270.686 251.361 270.675 251.361 270.661C251.361 270.596 251.379 267.948 251.926 263.926C253.421 254.789 258.108 237.812 272.725 226.424C274.191 225.308 275.641 224.276 277.045 223.278C279.581 221.475 281.975 219.784 284.091 217.838C286.771 215.424 288.437 212.341 289.475 209.381C290.666 206.836 290.983 204.728 290.931 203.107C291.209 200.926 291.185 199.41 291.185 199.245C291.182 199.204 291.166 199.168 291.156 199.129C291.849 199.007 292.763 198.768 293.762 198.316C293.864 198.27 293.975 198.232 294.073 198.183C296.963 196.829 298.986 193.939 299.469 193.215C299.884 193.247 300.209 193.259 300.411 193.259C300.561 193.259 300.635 193.237 300.649 193.237C300.959 193.237 301.196 193.006 301.238 192.719L301.555 190.825L306.684 186.98C306.696 186.971 306.702 186.957 306.714 186.947C306.72 186.942 306.726 186.94 306.732 186.934C306.776 186.934 306.776 186.916 306.776 186.894L308.659 185.133C308.784 185.008 308.843 184.824 308.843 184.654L308.808 183.073L314.73 175.614C314.972 175.35 314.912 174.96 314.648 174.74L312.865 173.158ZM258.798 340.9C258.829 340.83 258.839 340.758 258.843 340.686C259.01 340.766 259.172 340.863 259.331 340.978L258.788 340.926C258.791 340.92 258.797 340.904 258.798 340.9ZM178.892 170.169C178.892 170.161 178.896 170.154 178.898 170.146C178.948 170.14 179.001 170.132 179.052 170.126C178.997 170.155 178.937 170.188 178.873 170.226C178.879 170.208 178.886 170.185 178.892 170.169ZM202.11 394.469C202.112 394.469 202.113 394.469 202.115 394.469L202.11 394.508V394.469ZM211.334 285.84L211.582 285.347C211.591 285.526 211.598 285.705 211.607 285.886C211.517 285.848 211.426 285.833 211.334 285.84ZM224.109 350.776C224.154 350.477 224.234 350.156 224.329 349.828C224.212 350.641 224.16 351.44 224.219 352.183C224.094 351.664 224.039 351.187 224.109 350.776ZM252.163 365.169C252.029 365.065 251.952 365.014 251.952 365.014C251.952 365.014 252.739 364.864 253.903 364.379C253.321 364.684 252.739 364.947 252.163 365.169ZM257.701 340.304C257.668 340.349 257.631 340.392 257.61 340.446C257.607 340.453 257.553 340.585 257.455 340.798L254.476 340.513C255.383 340.289 256.548 340.08 257.701 340.304Z" fill="#FEFEFE"/>
<path d="M91.1333 97.5888C85.1964 98.1617 80.8505 103.443 81.4333 109.359C82.0083 115.286 87.2865 119.628 93.1979 119.055C99.1192 118.488 103.494 113.204 102.906 107.29C102.333 101.361 97.039 97.0123 91.1333 97.5888Z" fill="#FEFEFE"/>
</svg>
